<?xml version="1.0" encoding="UTF-8"?>
<svg xmlns="http://www.w3.org/2000/svg" version="1.1" xmlns:xlink="http://www.w3.org/1999/xlink" viewBox="0 0 2596.8 1300">
  <defs>
    <style>
      .cls-1 {
        fill-rule: evenodd;
      }

      .cls-1, .cls-2 {
        fill: #000836;
      }

      .cls-3 {
        fill: none;
      }

      .cls-4 {
        fill: #16b2f7;
      }

      .cls-5 {
        fill: url(#linear-gradient);
      }
    </style>
    <linearGradient id="linear-gradient" x1="87.9" y1="665.8" x2="602.6" y2="665.8" gradientUnits="userSpaceOnUse">
      <stop offset="0" stop-color="#fff"/>
      <stop offset="1" stop-color="#16b2f7"/>
    </linearGradient>
  </defs>
  <!-- Generator: Adobe Illustrator 28.6.0, SVG Export Plug-In . SVG Version: 1.2.0 Build 709)  -->
  <g>
    <g id="Layer_1">
      <g>
        <rect class="cls-3" x="-5.9" y=".5" width="2599.2" height="1304.4"/>
        <g>
          <g>
            <g>
              <path class="cls-2" d="M967.9,586c-45.5,0-82.4,36.2-82.4,80.7s36.2,82.4,82.4,82.4,36.2-6.3,50.4-17.6v2.7c0,9.8,8.2,16.5,15.9,16.5s15.9-6.8,15.9-16.5v-67.4c0-44.5-36.8-80.7-82.1-80.7ZM1018.3,666.7v4.2c-1.7,26.9-23.8,47.9-50.4,47.9s-50.4-23.4-50.4-52.2,22.1-50.4,50.4-50.4,50.4,22.6,50.4,50.4Z"/>
              <path class="cls-2" d="M1143.9,650c-13-2.4-22.7-5.6-28.6-9.6-4.8-3.2-7-7-7-12.1s1.9-8.2,6.2-11.1c5-3.4,11.7-5.1,19.8-5.1,14.7,0,25,5.7,31.7,17.3,2.1,3.7,5.5,6.3,9.5,7.4,3.9,1.1,8,.5,11.5-1.5,7.2-4.1,9.8-13.4,5.8-20.6-11.8-21.3-31.6-32.1-58.8-32.1s-28.4,4-39.4,11.8c-11.2,8.4-16.9,19.5-16.9,33.2s5.3,25,15.7,33.7c9.7,8,23,13.5,39.7,16.3,12.7,2.2,21.8,5.3,27.2,9.3,4.5,3.4,6.6,7.8,6.6,13.8s-2.3,11.9-7.3,16.1c-5.3,4.5-12.5,6.6-21.9,6.6s-17.6-2.6-24.3-7.9c-4.8-3.9-8.8-9-11.7-15.2-2-4.1-5.5-7.2-9.8-8.5-4.2-1.3-8.7-.7-12.4,1.5-7,4.2-9.6,13.2-5.9,20.5,5.4,10.6,12.9,19.4,22.4,26.2,11.8,8.5,25.9,12.8,41.8,12.8s32.9-5.3,44-15.6c11.3-10.5,17-23.1,17-37.4,0-26-18.4-42.8-54.7-49.9Z"/>
              <path class="cls-2" d="M1236.5,583.7c-9.5,0-15.9,6.4-15.9,15.9v134.6c0,8.9,6.8,15.6,15.9,15.6s15.3-6.7,15.3-15.6v-134.6c0-9.8-7.9-15.9-15.3-15.9Z"/>
              <path class="cls-2" d="M1434.7,692.4c-1.3-3.5-3.8-6.2-7.1-7.5-3.1-1.9-6.9-2.6-10.6-1.9-4.4.8-8.3,3.4-10.8,7.2l-.4.8c-7.8,16.4-24.1,26.2-43.7,26.2-28.3,0-51.3-22.3-51.3-49.8s23.5-51.3,51.3-51.3,30.9,8.1,39.9,20.7c2.1,3.2,5.3,5.5,9.1,6.3,4.4,1,9.3,0,13.4-2.6l.4-.3c3.3-2.5,5.4-6.3,5.7-10.4.3-3.8-1-7.6-3.4-10.4-14.4-21.1-38.7-33.6-65.1-33.6-45,0-81.5,36.6-81.5,81.5s36.6,81.5,81.5,81.5,56.2-16.2,71-43.4c2.5-4,3-8.8,1.5-13Z"/>
            </g>
            <path class="cls-1" d="M733.4,605.4c14.6-11.7,33-18.7,53.1-18.7,46.9,0,85,38.1,85,85s-38.1,85-85,85-85-38.1-85-85v-114.4c0-8.8,7.1-15.9,15.9-15.9s15.9,7.1,15.9,15.9v48.1h0ZM733.4,671.7c0,29.3,23.8,53.1,53.1,53.1s53.1-23.8,53.1-53.1-23.8-53.1-53.1-53.1-53.1,23.8-53.1,53.1h0Z"/>
          </g>
          <g>
            <path class="cls-5" d="M87.9,856.3c-.1-4.4,3.4-8.1,7.8-8.3,4.4-.1,8.1,3.4,8.3,7.8.1,4.4-3.4,8.1-7.8,8.3-4.4.1-8.1-3.4-8.3-7.8ZM235.7,950.1c8.2-.2,14.7-7.1,14.4-15.3-.2-8.2-7.1-14.7-15.3-14.4-8.2.2-14.7,7.1-14.4,15.3.2,8.2,7.1,14.7,15.3,14.4ZM160,917.5c6.4-.2,11.4-5.5,11.2-11.9-.2-6.4-5.5-11.4-11.9-11.2-6.4.2-11.4,5.5-11.2,11.9.2,6.4,5.5,11.4,11.9,11.2ZM317.6,961.5c11-.3,19.6-9.5,19.3-20.4-.3-11-9.5-19.6-20.4-19.3-11,.3-19.6,9.5-19.3,20.4.3,11,9.5,19.6,20.4,19.3ZM398.1,945.4c11.9-.3,21.2-10.2,20.8-22.1-.3-11.9-10.2-21.2-22.1-20.8-11.9.3-21.2,10.2-20.8,22.1.3,11.9,10.2,21.2,22.1,20.8ZM470,907.6c13.2-.4,23.6-11.4,23.2-24.6-.4-13.2-11.4-23.6-24.6-23.2-13.2.4-23.6,11.4-23.2,24.6.4,13.2,11.4,23.6,24.6,23.2ZM527,850.3c14.1-.4,25.2-12.2,24.8-26.3-.4-14.1-12.2-25.2-26.3-24.8-14.1.4-25.2,12.2-24.8,26.3.4,14.1,12.2,25.2,26.3,24.8ZM563.9,776.5c14.1-.4,25.2-12.2,24.8-26.3-.4-14.1-12.2-25.2-26.3-24.8s-25.2,12.2-24.8,26.3c.4,14.1,12.2,25.2,26.3,24.8ZM577.8,696.7c14.1-.4,25.2-12.2,24.8-26.3-.4-14.1-12.2-25.2-26.3-24.8-14.1.4-25.2,12.2-24.8,26.3.4,14.1,12.2,25.2,26.3,24.8ZM568.2,614.3c13.8-.4,24.7-11.9,24.3-25.7-.4-13.8-11.9-24.7-25.7-24.3-13.8.4-24.7,11.9-24.3,25.7.4,13.8,11.9,24.7,25.7,24.3ZM535,539.1c13.6-.4,24.3-11.8,23.9-25.4-.4-13.6-11.8-24.3-25.4-23.9-13.6.4-24.3,11.8-23.9,25.4.4,13.6,11.8,24.3,25.4,23.9ZM481.5,476.2c12.8-.4,22.9-11,22.5-23.8-.4-12.8-11-22.9-23.8-22.5-12.8.4-22.9,11-22.5,23.8.4,12.8,11,22.9,23.8,22.5ZM412.5,429.1c11.2-.3,20.1-9.7,19.7-20.9-.3-11.2-9.7-20.1-20.9-19.7-11.2.3-20.1,9.7-19.7,20.9.3,11.2,9.7,20.1,20.9,19.7ZM333.4,403.4c9.2-.3,16.4-7.9,16.1-17.1s-7.9-16.4-17.1-16.1c-9.2.3-16.4,7.9-16.1,17.1.3,9.2,7.9,16.4,17.1,16.1ZM251.5,401.8c7.2-.2,12.8-6.2,12.6-13.4-.2-7.2-6.2-12.8-13.4-12.6-7.2.2-12.8,6.2-12.6,13.4.2,7.2,6.2,12.8,13.4,12.6ZM173.8,420.7c4.2-.1,7.4-3.6,7.3-7.7-.1-4.2-3.6-7.4-7.7-7.3-4.2.1-7.4,3.6-7.3,7.7.1,4.2,3.6,7.4,7.7,7.3ZM176.7,824.6c5.1-.1,9.1-4.4,8.9-9.4-.1-5.1-4.4-9.1-9.4-8.9-5.1.1-9.1,4.4-8.9,9.4.1,5.1,4.4,9.1,9.4,8.9ZM246,866.9c8.2-.2,14.7-7.1,14.4-15.3-.2-8.2-7.1-14.7-15.3-14.4-8.2.2-14.7,7.1-14.4,15.3.2,8.2,7.1,14.7,15.3,14.4ZM323.8,876.9c11-.3,19.6-9.5,19.3-20.4-.3-11-9.5-19.6-20.4-19.3-11,.3-19.6,9.5-19.3,20.4.3,11,9.5,19.6,20.4,19.3ZM397.1,852.6c12.9-.4,23-11.1,22.6-24-.4-12.9-11.1-23-24-22.6-12.9.4-23,11.1-22.6,24,.4,12.9,11.1,23,24,22.6ZM453.2,800.1c14-.4,25-12.1,24.6-26.1-.4-14-12.1-25-26.1-24.6-14,.4-25,12.1-24.6,26.1.4,14,12.1,25,26.1,24.6ZM482.5,727.6c14-.4,25-12.1,24.6-26.1-.4-14-12.1-25-26.1-24.6-14,.4-25,12.1-24.6,26.1.4,14,12.1,25,26.1,24.6ZM480.2,649.7c14-.4,25-12.1,24.6-26.1-.4-14-12.1-25-26.1-24.6s-25,12.1-24.6,26.1c.4,14,12.1,25,26.1,24.6ZM445,577.8c13.3-.4,23.7-11.5,23.3-24.7-.4-13.3-11.5-23.7-24.7-23.3-13.3.4-23.7,11.5-23.3,24.7.4,13.3,11.5,23.7,24.7,23.3ZM385.5,525.5c12-.3,21.4-10.4,21.1-22.4-.3-12-10.4-21.4-22.4-21.1-12,.3-21.4,10.4-21.1,22.4.3,12,10.4,21.4,22.4,21.1ZM309.9,499c9.1-.3,16.3-7.9,16.1-17-.3-9.1-7.9-16.3-17-16.1-9.1.3-16.3,7.9-16.1,17,.3,9.1,7.9,16.3,17,16.1ZM232.4,503.2c5.8-.2,10.3-5,10.1-10.7s-5-10.3-10.7-10.1-10.3,5-10.1,10.7c.2,5.8,5,10.3,10.7,10.1Z"/>
            <path class="cls-1" d="M212.2,568.4c22.5-18.1,51.1-28.9,82.2-28.9,72.6,0,131.5,58.9,131.5,131.5s-58.9,131.5-131.5,131.5-131.5-58.9-131.5-131.5v-177c0-13.6,11-24.6,24.6-24.6s24.6,11,24.6,24.6v74.5h0ZM212.2,671c0,45.4,36.8,82.2,82.2,82.2s82.2-36.8,82.2-82.2-36.8-82.2-82.2-82.2-82.2,36.8-82.2,82.2h0Z"/>
          </g>
          <g>
            <g>
              <path class="cls-4" d="M1768.5,605c10.7,6.6,19.1,15.8,25,27.5,5.9,11.7,8.9,25.1,8.9,40.1s-1,5.5-2.8,7.4c-1.9,1.8-4.3,2.7-7.3,2.7h-114.2c1.5,15.8,7.5,28.6,18.1,38.4,10.5,9.8,23.7,14.7,39.6,14.7s13.6-1.2,20.5-3.6c6.9-2.4,12.4-5.4,16.5-9.1,2.4-1.9,5-2.9,7.6-2.9s4.1.8,6.2,2.3c2.4,2.3,3.7,4.9,3.7,7.8s-1,4.7-3.1,6.6c-6.2,5.4-14.1,9.9-23.7,13.4-9.6,3.6-18.8,5.3-27.7,5.3-15.1,0-28.6-3.4-40.4-10.2-11.9-6.8-21.1-16.3-27.8-28.6-6.7-12.2-10-26-10-41.4s3.2-29.5,9.5-41.7c6.3-12.2,15.1-21.7,26.3-28.6,11.2-6.8,24-10.2,38.3-10.2s26.3,3.3,37,10ZM1695.9,628.5c-9.4,9-15.2,21-17.2,35.8h103.4c-1.5-14.8-6.8-26.7-15.8-35.8-9-9-20.6-13.5-34.8-13.5s-26.2,4.5-35.6,13.5Z"/>
              <path class="cls-4" d="M1927.3,603.4c10.3,5.8,18.4,14.2,24.2,25.2,5.8,11.1,8.8,24.3,8.8,39.7v75c0,3.1-1,5.7-3,7.8-2,2.1-4.5,3.2-7.4,3.2s-5.7-1.1-7.7-3.2c-2-2.1-3-4.7-3-7.8v-75c0-17.1-4.5-30.1-13.6-39.1-9.1-8.9-20.9-13.4-35.5-13.4s-17,1.8-24.2,5.5c-7.2,3.7-12.9,8.7-17.1,15.1-4.2,6.4-6.3,13.6-6.3,21.5v85.4c0,3.3-1,5.9-2.9,7.9-1.9,2-4.4,3-7.5,3s-5.7-1-7.7-3c-2-2-3-4.7-3-7.9v-135.5c0-3.3,1-6,3-8.1,2-2.1,4.6-3.2,7.7-3.2s5.6,1.1,7.5,3.2c1.9,2.1,2.9,4.8,2.9,8.1v9.8c6-7.1,13.3-12.7,21.9-16.7,8.6-4,17.9-6.1,27.9-6.1s24.6,2.9,34.9,8.7Z"/>
              <path class="cls-4" d="M2094.1,605c10.7,6.6,19.1,15.8,25,27.5,5.9,11.7,8.9,25.1,8.9,40.1s-1,5.5-2.8,7.4c-1.9,1.8-4.3,2.7-7.3,2.7h-114.2c1.5,15.8,7.5,28.6,18.1,38.4,10.5,9.8,23.7,14.7,39.6,14.7s13.6-1.2,20.5-3.6c6.9-2.4,12.4-5.4,16.5-9.1,2.4-1.9,5-2.9,7.6-2.9s4.1.8,6.2,2.3c2.4,2.3,3.7,4.9,3.7,7.8s-1,4.7-3.1,6.6c-6.2,5.4-14.1,9.9-23.7,13.4-9.6,3.6-18.8,5.3-27.7,5.3-15.1,0-28.6-3.4-40.4-10.2-11.9-6.8-21.1-16.3-27.8-28.6-6.7-12.2-10-26-10-41.4s3.2-29.5,9.5-41.7c6.3-12.2,15.1-21.7,26.3-28.6,11.2-6.8,24-10.2,38.3-10.2s26.3,3.3,37,10ZM2021.5,628.5c-9.4,9-15.2,21-17.2,35.8h103.4c-1.5-14.8-6.8-26.7-15.8-35.8-9-9-20.6-13.5-34.8-13.5s-26.2,4.5-35.6,13.5Z"/>
              <path class="cls-4" d="M2185.8,561.9c-6.1,8.5-9.2,19.7-9.2,33.7v6.6h32.9c2.9,0,5.3.9,7,2.7,1.7,1.8,2.6,4.2,2.6,7.1s-.9,4.9-2.6,6.8c-1.7,1.8-4.1,2.7-7,2.7h-32.9v121.4c0,3.5-1,6.2-2.9,8.2-1.9,2-4.6,3-8.1,3s-5.3-1-7.3-3c-1.9-2-2.9-4.8-2.9-8.2v-121.4h-17.5c-2.9,0-5.3-.9-7-2.7-1.7-1.8-2.6-4.1-2.6-6.8s.9-5.2,2.6-7.1c1.7-1.8,4.1-2.7,7-2.7h17.5v-5.5c0-20.6,5-37,15.1-49.3,10.1-12.3,24.2-18.5,42.5-18.5s5.7,1,7.7,2.9c2,1.9,3,4.3,3,7.2s-1,5.3-3,7.2c-2,1.9-4.6,2.9-7.7,2.9-12,0-21.1,4.2-27.3,12.7Z"/>
            </g>
            <g>
              <path class="cls-4" d="M2241.6,751.1c-2-2.1-3-4.8-3-8.1v-135.3c0-3.3,1-6,3-8.1,2-2.1,4.6-3.2,7.7-3.2s5.6,1.1,7.5,3.2c1.9,2.1,2.9,4.8,2.9,8.1v135.3c0,3.3-1,6-2.9,8.1-1.9,2.1-4.4,3.2-7.5,3.2s-5.7-1.1-7.7-3.2Z"/>
              <path class="cls-4" d="M2370.1,735.2c1.8,2.1,2.7,4.8,2.7,8.1s-1.1,5.7-3.3,7.8c-2.2,2.1-4.9,3.2-8.2,3.2h-5.7c-9.7,0-18.4-2.4-26-7.4-7.7-4.9-13.7-11.5-17.9-19.9-4.3-8.4-6.4-17.8-6.4-28.4v-77h-17.8c-2.9,0-5.3-.9-7-2.7-1.7-1.8-2.6-4.1-2.6-6.8s.9-5.2,2.6-7.1c1.7-1.8,4.1-2.7,7-2.7h17.8v-44.7c0-3.3,1-6,2.9-8.1,1.9-2.1,4.4-3.2,7.5-3.2s5.7,1.1,7.7,3.2c2,2.1,3,4.8,3,8.1v44.7h31c2.9,0,5.3.9,7,2.7,1.7,1.8,2.6,4.2,2.6,7.1s-.9,4.9-2.6,6.8c-1.7,1.8-4.1,2.7-7,2.7h-31v77c0,9.8,2.7,17.8,8.2,24.1,5.5,6.2,12.5,9.4,21.1,9.4h7.4c2.9,0,5.3,1.1,7.1,3.2Z"/>
              <path class="cls-4" d="M2406.7,749.7c-9.5-4-17.2-9.7-23.1-17-1.7-2.3-2.5-4.5-2.5-6.6,0-3.3,1.3-6.2,4-8.6,2-1.7,4.1-2.6,6.3-2.6s5.3,1.3,7.3,4c4,5.4,9.3,9.5,15.9,12.4,6.6,2.9,13.9,4.3,22,4.3,11.7,0,20.5-2.3,26.3-6.9,5.9-4.6,8.9-10.7,9-18.2,0-6.9-2.9-12.7-8.8-17.3-5.9-4.6-15.1-8.1-27.8-10.4-16.4-3.1-28.7-8.4-36.8-16-8.1-7.6-12.2-16.8-12.2-27.5s4.7-24.9,14.2-32.6c9.5-7.7,21.3-11.5,35.5-11.5s20.7,2.2,28.9,6.5c8.2,4.3,14.8,10.3,19.8,18,1.3,2.5,2,4.7,2,6.6,0,3.3-1.3,5.9-4,7.8-1.2,1-2.8,1.4-4.8,1.4-3.5,0-6.4-1.4-8.8-4.3-8.2-10.8-19.4-16.1-33.6-16.1s-16.6,2.2-22.1,6.5c-5.5,4.3-8.3,9.8-8.3,16.3s2.6,12.4,7.8,16.6c5.2,4.1,14.4,7.5,27.6,10,17.9,3.5,30.7,9.1,38.4,16.9,7.7,7.8,11.5,17.4,11.5,29s-2.3,16.7-6.9,23.6c-4.6,6.9-11,12.3-19.2,16.2-8.2,3.8-17.5,5.8-27.8,5.8s-20.3-2-29.9-6.1Z"/>
            </g>
            <path class="cls-4" d="M1489.8,550.8c0-2.8,1-5.2,3-7.3,2-2.1,4.3-3.1,7-3.1s5,1,7,3.1c2,2.1,3,4.5,3,7.3v70.4c5.7-7.2,14-13.7,25-19.5,11.2-6.2,22.3-9.3,33.3-9.3s20.9,2.1,30.4,6.4c9.5,4.3,17.8,10.2,24.9,17.7,7.1,7.5,12.7,16.2,16.8,26.2,4.1,10,6.1,20.7,6.1,32s-2,22.1-6.1,32c-4.1,10-9.7,18.7-16.8,26.2-7.1,7.5-15.4,13.4-24.9,17.7-9.5,4.3-19.6,6.4-30.4,6.4s-21-2.1-30.4-6.4c-9.5-4.3-17.8-10.2-24.9-17.7-7.1-7.5-12.7-16.2-16.8-26.2-4.1-10-6.1-20.7-6.1-32v-123.9ZM1509.7,674.8c0,8.4,1.5,16.3,4.5,23.8,3,7.5,7.2,14,12.5,19.6,5.3,5.6,11.5,10,18.6,13.2,7.1,3.2,14.6,4.8,22.6,4.8s15.5-1.6,22.6-4.8c7.1-3.2,13.3-7.6,18.6-13.2,5.3-5.6,9.5-12.1,12.5-19.6,3-7.5,4.6-15.4,4.6-23.8s-1.5-16.3-4.6-23.8c-3-7.5-7.2-14-12.5-19.6-5.3-5.6-11.5-10-18.6-13.2-7.1-3.2-14.7-4.8-22.6-4.8s-15.5,1.6-22.6,4.8c-7.1,3.2-13.3,7.6-18.6,13.2-5.3,5.6-9.5,12.1-12.5,19.6-3,7.5-4.5,15.4-4.5,23.8Z"/>
          </g>
        </g>
      </g>
    </g>
  </g>
</svg>